<?xml version="1.0" encoding="utf-8"?>
<!-- Generator: Adobe Illustrator 22.1.0, SVG Export Plug-In . SVG Version: 6.00 Build 0)  -->
<svg version="1.1" id="Layer_1" xmlns="http://www.w3.org/2000/svg" xmlns:xlink="http://www.w3.org/1999/xlink" x="0px" y="0px"
	 viewBox="0 0 64 80" style="enable-background:new 0 0 64 80;" xml:space="preserve">
<style type="text/css">
	.st0{font-family:'HelveticaNeue-Bold';}
	.st1{font-size:5px;}
	.st2{fill:#FFFFFF;stroke:#000000;stroke-miterlimit:10;}
</style>
<title>cart-17</title>
<path d="M55,42.9c-0.2-0.3-0.5-0.4-0.9-0.4H16.3L8.8,12.4c-0.1-0.5-0.6-0.8-1.1-0.8H1.1c-0.6,0-1.1,0.5-1.1,1.1s0.5,1.1,1.1,1.1h5.8
	l7.5,30.1c0.1,0.5,0.6,0.8,1.1,0.8h37.2L51,50.2H17.7c-0.6,0-1.1,0.5-1.1,1.1s0.5,1.1,1.1,1.1h34.2c0.5,0,0.9-0.3,1.1-0.8l2.2-7.7
	C55.2,43.6,55.2,43.2,55,42.9L55,42.9z"/>
<path d="M63.8,16.5c-0.2-0.3-0.5-0.5-0.9-0.5H14.3c-0.6,0-1.1,0.5-1.1,1.1s0.5,1.1,1.1,1.1h47l-7.2,21.7c-0.2,0.6,0.1,1.2,0.7,1.4
	c0.1,0,0.2,0.1,0.3,0.1c0.5,0,0.9-0.3,1-0.8l7.7-23.2C64.1,17.1,64,16.7,63.8,16.5L63.8,16.5z"/>
<text transform="matrix(1 0 0 1 0 79)" class="st0 st1">Created by Nick abraham</text>
<text transform="matrix(1 0 0 1 0 84)" class="st0 st1">from the Noun Project</text>
<rect x="0" y="73.4" class="st2" width="64" height="5.6"/>
</svg>
