<?xml version="1.0" encoding="utf-8"?>
<!-- Generator: Adobe Illustrator 22.1.0, SVG Export Plug-In . SVG Version: 6.00 Build 0)  -->
<svg version="1.1" id="Layer_1" xmlns="http://www.w3.org/2000/svg" xmlns:xlink="http://www.w3.org/1999/xlink" x="0px" y="0px"
	 viewBox="0 0 100 125" style="enable-background:new 0 0 100 125;" xml:space="preserve">
<style type="text/css">
	.st0{font-family:'HelveticaNeue-Bold';}
	.st1{font-size:5px;}
	.st2{fill:#FFFFFF;}
</style>
<path d="M91.8,28.6H7.5C6.1,28.6,5,27.5,5,26s1.2-2.6,2.6-2.6h84.3c1.4,0,2.6,1.2,2.6,2.6S93.3,28.6,91.8,28.6z"/>
<path d="M91.8,51.3H7.5c-1.4,0-2.6-1.2-2.6-2.6s1.2-2.6,2.6-2.6h84.3c1.4,0,2.6,1.2,2.6,2.6S93.3,51.3,91.8,51.3z"/>
<path d="M91.8,73.9H7.5c-1.4,0-2.6-1.2-2.6-2.6s1.2-2.6,2.6-2.6h84.3c1.4,0,2.6,1.2,2.6,2.6C94.4,72.8,93.3,73.9,91.8,73.9z"/>
<text transform="matrix(1 0 0 1 0 115)" class="st0 st1">Created by Morten Halvorsen</text>
<text transform="matrix(1 0 0 1 0 120)" class="st0 st1">from the Noun Project</text>
<rect y="108.9" class="st2" width="72" height="13"/>
</svg>
